<svg xmlns="http://www.w3.org/2000/svg" xmlns:xlink="http://www.w3.org/1999/xlink" width="500" zoomAndPan="magnify" viewBox="0 0 375 374.999991" height="500" preserveAspectRatio="xMidYMid meet" version="1.0"><defs><clipPath id="157ce77c10"><path d="M 42.273438 122.148438 L 332.523438 122.148438 L 332.523438 252.648438 L 42.273438 252.648438 Z M 42.273438 122.148438 " clip-rule="nonzero"/></clipPath></defs><g clip-path="url(#157ce77c10)"><path fill="#ffffff" d="M 267.855469 252.367188 L 107.140625 252.367188 C 71.320312 252.367188 42.273438 223.320312 42.273438 187.5 C 42.273438 151.675781 71.320312 122.632812 107.140625 122.632812 L 268.339844 122.632812 C 303.679688 122.632812 332.722656 151.675781 332.722656 187.5 C 332.722656 223.320312 303.679688 252.367188 267.855469 252.367188 Z M 107.140625 134.25 C 77.613281 134.25 53.894531 157.96875 53.894531 187.5 C 53.894531 217.027344 77.613281 240.746094 107.140625 240.746094 L 268.339844 240.746094 C 297.871094 240.746094 321.589844 217.027344 321.589844 187.5 C 321.589844 157.96875 297.871094 134.25 268.339844 134.25 Z M 107.140625 134.25 " fill-opacity="1" fill-rule="nonzero"/></g><path fill="#ffffff" d="M 153.128906 197.179688 C 151.191406 197.179688 149.257812 196.210938 148.289062 194.757812 C 144.417969 188.949219 138.125 185.5625 131.347656 185.5625 C 124.570312 185.5625 118.277344 188.949219 114.402344 194.757812 C 112.464844 197.664062 109.078125 198.148438 106.171875 196.210938 C 103.269531 194.277344 102.785156 190.886719 104.722656 187.980469 C 110.53125 179.269531 120.695312 173.945312 131.347656 173.945312 C 141.996094 173.945312 152.160156 179.269531 157.96875 187.980469 C 159.90625 190.886719 158.9375 194.277344 156.519531 196.210938 C 155.550781 196.695312 154.582031 197.179688 153.128906 197.179688 Z M 153.128906 197.179688 " fill-opacity="1" fill-rule="nonzero"/><path fill="#ffffff" d="M 266.890625 197.179688 C 264.953125 197.179688 263.015625 196.210938 262.046875 194.757812 C 258.175781 188.949219 251.882812 185.5625 245.105469 185.5625 C 238.328125 185.5625 232.035156 188.949219 228.164062 194.757812 C 226.226562 197.664062 222.835938 198.148438 219.933594 196.210938 C 217.027344 194.277344 216.542969 190.886719 218.480469 187.980469 C 224.289062 179.269531 234.457031 173.945312 245.105469 173.945312 C 255.753906 173.945312 265.921875 179.269531 271.730469 187.980469 C 273.667969 190.886719 272.699219 194.277344 270.277344 196.210938 C 268.824219 196.695312 267.855469 197.179688 266.890625 197.179688 Z M 266.890625 197.179688 " fill-opacity="1" fill-rule="nonzero"/></svg>